<?xml version="1.0" encoding="UTF-8" standalone="no"?>
<!-- Zynt (super.alekberov@proton.me) -->
<!-- Created with Inkscape (http://www.inkscape.org/) -->

<svg
   width="512mm"
   height="512mm"
   viewBox="0 0 512 512"
   version="1.1"
   id="beu"
   xml:space="preserve"
   sodipodi:docname="beu_bw.svg"
   inkscape:version="1.4 (e7c3feb100, 2024-10-09)"
   xmlns:inkscape="http://www.inkscape.org/namespaces/inkscape"
   xmlns:sodipodi="http://sodipodi.sourceforge.net/DTD/sodipodi-0.dtd"
   xmlns="http://www.w3.org/2000/svg"
   xmlns:svg="http://www.w3.org/2000/svg"><sodipodi:namedview
     id="namedview1"
     pagecolor="#505050"
     bordercolor="#eeeeee"
     borderopacity="1"
     inkscape:showpageshadow="0"
     inkscape:pageopacity="0"
     inkscape:pagecheckerboard="false"
     inkscape:deskcolor="#505050"
     inkscape:document-units="mm"
     showguides="false"
     showgrid="false"
     inkscape:zoom="0.5"
     inkscape:cx="1088"
     inkscape:cy="871"
     inkscape:window-width="2560"
     inkscape:window-height="1370"
     inkscape:window-x="0"
     inkscape:window-y="0"
     inkscape:window-maximized="1"
     inkscape:current-layer="g38"><sodipodi:guide
       position="255.99999,255.99999"
       orientation="0,-1"
       id="guide2"
       inkscape:locked="false" /><sodipodi:guide
       position="255.99998,289"
       orientation="1,0"
       id="guide3"
       inkscape:locked="false" /><sodipodi:guide
       position="255.99999,274.0232"
       orientation="0,-1"
       id="guide4"
       inkscape:locked="false" /><sodipodi:guide
       position="39.414016,472.58595"
       orientation="1637.1853,0"
       id="guide5"
       inkscape:locked="false" /><sodipodi:guide
       position="39.414016,39.414031"
       orientation="0,1637.1853"
       id="guide6"
       inkscape:locked="false" /><sodipodi:guide
       position="472.58594,39.414031"
       orientation="-1637.1853,0"
       id="guide7"
       inkscape:locked="false" /><sodipodi:guide
       position="472.58594,472.58595"
       orientation="0,-1637.1853"
       id="guide8"
       inkscape:locked="false" /><inkscape:grid
       id="grid8"
       units="mm"
       originx="0"
       originy="0"
       spacingx="0.99999997"
       spacingy="0.99999997"
       empcolor="#0099e5"
       empopacity="0.30196078"
       color="#0099e5"
       opacity="0.14901961"
       empspacing="5"
       enabled="true"
       visible="false" /><sodipodi:guide
       position="255.99999,237.99999"
       orientation="0,1"
       id="guide12"
       inkscape:locked="false"
       inkscape:label=""
       inkscape:color="rgb(0,134,229)" /><sodipodi:guide
       position="237.99999,255.99999"
       orientation="-1,0"
       id="guide13"
       inkscape:locked="false"
       inkscape:label=""
       inkscape:color="rgb(0,134,229)" /><sodipodi:guide
       position="273.99999,255.99999"
       orientation="-1,0"
       id="guide14"
       inkscape:locked="false"
       inkscape:label=""
       inkscape:color="rgb(0,134,229)" /><sodipodi:guide
       position="255.99999,335"
       orientation="0,1"
       id="guide15"
       inkscape:locked="false"
       inkscape:label=""
       inkscape:color="rgb(0,134,229)" /><sodipodi:guide
       position="255.99999,176"
       orientation="0,1"
       id="guide16"
       inkscape:locked="false"
       inkscape:label=""
       inkscape:color="rgb(0,134,229)" /><sodipodi:guide
       position="255.99999,201.99999"
       orientation="0,1"
       id="guide17"
       inkscape:locked="false"
       inkscape:label=""
       inkscape:color="rgb(0,134,229)" /><sodipodi:guide
       position="255.99999,309.99999"
       orientation="0,1"
       id="guide18"
       inkscape:locked="false"
       inkscape:label=""
       inkscape:color="rgb(0,134,229)" /><sodipodi:guide
       position="148,363.99999"
       orientation="-1,0"
       id="guide19"
       inkscape:locked="false"
       inkscape:label=""
       inkscape:color="rgb(0,134,229)" /><sodipodi:guide
       position="148,363.99999"
       orientation="0,1"
       id="guide20"
       inkscape:locked="false"
       inkscape:label=""
       inkscape:color="rgb(0,134,229)" /><sodipodi:guide
       position="148,334.99999"
       orientation="0,1"
       id="guide21"
       inkscape:locked="false"
       inkscape:label=""
       inkscape:color="rgb(0,134,229)" /><sodipodi:guide
       position="177.99999,378.83963"
       orientation="1,0"
       id="guide22"
       inkscape:locked="false" /><sodipodi:guide
       position="177.99999,379.99999"
       orientation="1,0"
       id="guide23"
       inkscape:locked="false" /><sodipodi:guide
       position="147.99999,177.00001"
       orientation="0,-1"
       id="guide24"
       inkscape:locked="false" /><sodipodi:guide
       position="202.57902,274.0232"
       orientation="1,0"
       id="guide25"
       inkscape:locked="false" /><sodipodi:guide
       position="93.999994,363.99999"
       orientation="1,0"
       id="guide26"
       inkscape:locked="false" /><sodipodi:guide
       position="93.999994,334.99999"
       orientation="1,0"
       id="guide27"
       inkscape:locked="false" /><sodipodi:guide
       position="176.99999,420.99999"
       orientation="0,-1"
       id="guide28"
       inkscape:locked="false" /><sodipodi:guide
       position="147.99999,420.99999"
       orientation="0,-1"
       id="guide29"
       inkscape:locked="false" /><sodipodi:guide
       position="63.999996,349.99999"
       orientation="0,1"
       id="guide30"
       inkscape:locked="false"
       inkscape:label=""
       inkscape:color="rgb(0,134,229)" /><sodipodi:guide
       position="162.99999,449.99999"
       orientation="1,0"
       id="guide31"
       inkscape:locked="false" /><sodipodi:guide
       position="227.99999,284"
       orientation="0,-1"
       id="guide33"
       inkscape:locked="false" /><sodipodi:guide
       position="227.99999,284"
       orientation="1,0"
       id="guide34"
       inkscape:locked="false" /><sodipodi:guide
       position="255.99999,288.99999"
       orientation="0,1"
       id="guide35"
       inkscape:locked="false"
       inkscape:label=""
       inkscape:color="rgb(0,134,229)" /><sodipodi:guide
       position="222.99999,255.99999"
       orientation="-1,0"
       id="guide36"
       inkscape:locked="false"
       inkscape:label=""
       inkscape:color="rgb(0,134,229)" /><sodipodi:guide
       position="222.99999,261"
       orientation="1,0"
       id="guide37"
       inkscape:locked="false" /><sodipodi:guide
       position="249.99999,288.99999"
       orientation="-1,0"
       id="guide38"
       inkscape:locked="false"
       inkscape:label=""
       inkscape:color="rgb(0,134,229)" /></sodipodi:namedview><defs
     id="defs1"><inkscape:path-effect
       effect="copy_rotate"
       starting_point="0,0"
       origin="256,256"
       id="path-effect53"
       is_visible="true"
       lpeversion="1.2"
       lpesatellites=""
       method="normal"
       num_copies="2"
       starting_angle="0"
       rotation_angle="90"
       gap="0"
       copies_to_360="true"
       mirror_copies="false"
       split_items="false"
       link_styles="false" /><inkscape:path-effect
       effect="mirror_symmetry"
       start_point="0,256"
       end_point="512,256"
       center_point="256,256"
       id="path-effect52"
       is_visible="true"
       lpeversion="1.2"
       lpesatellites=""
       mode="horizontal"
       discard_orig_path="false"
       fuse_paths="false"
       oposite_fuse="false"
       split_items="false"
       split_open="false"
       link_styles="false" /><inkscape:path-effect
       effect="copy_rotate"
       starting_point="0,0"
       origin="256,256"
       id="path-effect50"
       is_visible="true"
       lpeversion="1.2"
       lpesatellites=""
       method="normal"
       num_copies="2"
       starting_angle="0"
       rotation_angle="90"
       gap="0"
       copies_to_360="false"
       mirror_copies="false"
       split_items="false"
       link_styles="false" /><inkscape:path-effect
       effect="copy_rotate"
       starting_point="0,0"
       origin="37.000002,256"
       id="path-effect49"
       is_visible="true"
       lpeversion="1.2"
       lpesatellites=""
       method="normal"
       num_copies="6"
       starting_angle="0"
       rotation_angle="60"
       gap="-0.01"
       copies_to_360="true"
       mirror_copies="false"
       split_items="false"
       link_styles="false" /><inkscape:path-effect
       effect="mirror_symmetry"
       start_point="37.000002,256"
       end_point="474.99996,256"
       center_point="255.99998,256"
       id="path-effect48"
       is_visible="true"
       lpeversion="1.2"
       lpesatellites=""
       mode="free"
       discard_orig_path="false"
       fuse_paths="false"
       oposite_fuse="false"
       split_items="false"
       split_open="false"
       link_styles="false" /><inkscape:path-effect
       effect="mirror_symmetry"
       start_point="0,256"
       end_point="512,256"
       center_point="256,256"
       id="path-effect47"
       is_visible="true"
       lpeversion="1.2"
       lpesatellites=""
       mode="horizontal"
       discard_orig_path="false"
       fuse_paths="false"
       oposite_fuse="false"
       split_items="false"
       split_open="false"
       link_styles="false" /><inkscape:path-effect
       effect="mirror_symmetry"
       start_point="474.99996,135.00001"
       end_point="474.99996,256"
       center_point="474.99996,195.5"
       id="path-effect46"
       is_visible="true"
       lpeversion="1.2"
       lpesatellites=""
       mode="free"
       discard_orig_path="false"
       fuse_paths="false"
       oposite_fuse="false"
       split_items="false"
       split_open="false"
       link_styles="false" /><inkscape:path-effect
       effect="mirror_symmetry"
       start_point="255.99998,135.00001"
       end_point="255.99998,256"
       center_point="255.99998,195.5"
       id="path-effect45"
       is_visible="true"
       lpeversion="1.2"
       lpesatellites=""
       mode="free"
       discard_orig_path="false"
       fuse_paths="false"
       oposite_fuse="false"
       split_items="false"
       split_open="false"
       link_styles="false" /></defs><g
     inkscape:label="Layer 1"
     inkscape:groupmode="layer"
     id="layer1"><g
       id="g38"><path
         style="fill:#ffffff;stroke:none;fill-opacity:1"
         d="m 162,30.652344 c -18.34192,0 -33.34766,15.005742 -33.34766,33.347656 0,18.341906 15.00574,33.347656 33.34766,33.347656 18.34192,0 33.34766,-15.00575 33.34766,-33.347656 0,-18.341914 -15.00574,-33.347656 -33.34766,-33.347656 z m 188,0 c -18.34192,0 -33.34766,15.005742 -33.34766,33.347656 0,18.341906 15.00574,33.347656 33.34766,33.347656 18.34192,0 33.34766,-15.00575 33.34766,-33.347656 0,-18.341914 -15.00574,-33.347656 -33.34766,-33.347656 z M 162,43.347656 c 11.48146,0 20.65234,9.170878 20.65234,20.652344 0,11.481454 -9.17088,20.652344 -20.65234,20.652344 -11.48146,0 -20.65234,-9.17089 -20.65234,-20.652344 0,-11.481466 9.17088,-20.652344 20.65234,-20.652344 z m 188,0 c 11.48146,0 20.65234,9.170878 20.65234,20.652344 0,11.481454 -9.17088,20.652344 -20.65234,20.652344 -11.48146,0 -20.65234,-9.17089 -20.65234,-20.652344 0,-11.481466 9.17088,-20.652344 20.65234,-20.652344 z M 64,128.65234 c -18.34191,0 -33.347656,15.00574 -33.347656,33.34766 0,18.34192 15.005746,33.34766 33.347656,33.34766 18.34191,0 33.347656,-15.00574 33.347656,-33.34766 0,-18.34192 -15.005746,-33.34766 -33.347656,-33.34766 z m 384,0 c -18.34191,0 -33.34766,15.00574 -33.34766,33.34766 0,18.34192 15.00575,33.34766 33.34766,33.34766 18.34191,0 33.34766,-15.00574 33.34766,-33.34766 0,-18.34192 -15.00575,-33.34766 -33.34766,-33.34766 z M 64,141.34766 c 11.48146,0 20.652344,9.17088 20.652344,20.65234 0,11.48146 -9.170884,20.65234 -20.652344,20.65234 -11.48146,0 -20.652344,-9.17088 -20.652344,-20.65234 0,-11.48146 9.170884,-20.65234 20.652344,-20.65234 z m 384,0 c 11.48147,0 20.65234,9.17088 20.65234,20.65234 0,11.48146 -9.17087,20.65234 -20.65234,20.65234 -11.48145,0 -20.65234,-9.17088 -20.65234,-20.65234 0,-11.48146 9.17089,-20.65234 20.65234,-20.65234 z M 64,316.65234 c -18.34191,0 -33.347656,15.00574 -33.347656,33.34766 0,18.34192 15.005746,33.34766 33.347656,33.34766 18.34191,0 33.347656,-15.00574 33.347656,-33.34766 0,-18.34192 -15.005746,-33.34766 -33.347656,-33.34766 z m 384,0 c -18.34191,0 -33.34766,15.00574 -33.34766,33.34766 0,18.34192 15.00575,33.34766 33.34766,33.34766 18.34191,0 33.34766,-15.00574 33.34766,-33.34766 0,-18.34192 -15.00575,-33.34766 -33.34766,-33.34766 z M 64,329.34766 c 11.48146,0 20.652344,9.17088 20.652344,20.65234 0,11.48146 -9.170884,20.65234 -20.652344,20.65234 -11.48146,0 -20.652344,-9.17088 -20.652344,-20.65234 0,-11.48146 9.170884,-20.65234 20.652344,-20.65234 z m 384,0 c 11.48147,0 20.65234,9.17088 20.65234,20.65234 0,11.48146 -9.17087,20.65234 -20.65234,20.65234 -11.48145,0 -20.65234,-9.17088 -20.65234,-20.65234 0,-11.48146 9.17089,-20.65234 20.65234,-20.65234 z m -286,85.30468 c -18.34192,0 -33.34766,15.00575 -33.34766,33.34766 0,18.34191 15.00574,33.34766 33.34766,33.34766 18.34192,0 33.34766,-15.00575 33.34766,-33.34766 0,-18.34191 -15.00574,-33.34766 -33.34766,-33.34766 z m 188,0 c -18.34192,0 -33.34766,15.00575 -33.34766,33.34766 0,18.34191 15.00574,33.34766 33.34766,33.34766 18.34192,0 33.34766,-15.00575 33.34766,-33.34766 0,-18.34191 -15.00574,-33.34766 -33.34766,-33.34766 z m -188,12.69532 c 11.48146,0 20.65234,9.17089 20.65234,20.65234 0,11.48147 -9.17088,20.65234 -20.65234,20.65234 -11.48146,0 -20.65234,-9.17087 -20.65234,-20.65234 0,-11.48145 9.17088,-20.65234 20.65234,-20.65234 z m 188,0 c 11.48146,0 20.65234,9.17089 20.65234,20.65234 0,11.48147 -9.17088,20.65234 -20.65234,20.65234 -11.48146,0 -20.65234,-9.17087 -20.65234,-20.65234 0,-11.48145 9.17088,-20.65234 20.65234,-20.65234 z"
         id="path31" /><path
         style="fill:#ffffff;fill-opacity:1;stroke:none;stroke-width:12;stroke-dasharray:none"
         d="M 93.999996,148 H 148 l 29.99999,28.99999 c 0.79627,35.28703 13.39512,45.79489 24.57903,60.9768 L 177.99999,256 C 159.86725,237.86726 148,215.15814 148,177 l -54.000004,-1e-5 z m 323.999964,0 h -54 l -29.99999,28.99999 c -0.79627,35.28703 -13.39512,45.79489 -24.57903,60.9768 L 333.99997,256 c 18.13274,-18.13274 29.99999,-40.84186 29.99999,-79 l 54,-1e-5 z M 93.999996,364 H 148 l 29.99999,-28.99999 c 0.79627,-35.28703 13.39512,-45.79489 24.57903,-60.9768 L 177.99999,256 C 159.86725,274.13274 148,296.84186 148,335 l -54.000004,10e-6 z m 323.999964,0 h -54 l -29.99999,-28.99999 c -0.79627,-35.28703 -13.39512,-45.79489 -24.57903,-60.9768 L 333.99997,256 c 18.13274,18.13274 29.99999,40.84186 29.99999,79 l 54,10e-6 z M 148,418 v -54 l 29.99999,-29.00001 c 35.28703,-0.79627 44.79489,-14.3951 59.9768,-25.57901 L 256,334.00001 C 237.86726,352.13275 215.15814,364 177,364 l -1e-5,54 z m 0,-323.99996 v 54 l 29.99999,28.99995 c 35.28703,0.79627 44.79489,14.39516 59.9768,25.57907 L 256,178.00003 c -18.13274,-18.13274 -40.84186,-29.99999 -79,-29.99999 l -1e-5,-54 z M 364,418 v -54 l -30.00003,-28.99999 c -35.28703,-0.79627 -44.79485,-14.39512 -59.97676,-25.57903 L 256,334.00001 C 274.13274,352.13275 296.84186,364 335,364 l 10e-6,54 z m 0,-323.99996 v 54 l -30.00003,28.99995 c -35.28703,0.79627 -44.79485,14.39516 -59.97676,25.57907 L 256,178.00003 c 18.13274,-18.13274 40.84186,-29.99999 79,-29.99999 l 10e-6,-54 z"
         id="path33"
         sodipodi:nodetypes="cccccccccccccccccccccccccccccccccccccccccccccccccccccccccccccccc" /><path
         style="display:inline;fill:#ffffff;fill-opacity:1;stroke:none;stroke-width:12;stroke-dasharray:none"
         d="m 255.99998,256 -27.99999,-28.00001 c -11.00078,0.73177 -19.84088,3.68126 -25.42097,9.9768 7.19127,7.76273 14.00429,12.09439 20.42097,13.0232 V 256 Z m 0,0 27.99999,-28.00001 c 11.00078,0.73177 19.84088,3.68126 25.42097,9.9768 -7.19127,7.76273 -14.00429,12.09439 -20.42097,13.0232 V 256 Z m 0,0 -27.99999,28.00001 c -11.00078,-0.73177 -19.84088,-3.68126 -25.42097,-9.9768 7.19127,-7.76273 14.00429,-12.09439 20.42097,-13.0232 V 256 Z m 0,0 27.99999,28.00001 c 11.00078,-0.73177 19.84088,-3.68126 25.42097,-9.9768 -7.19127,-7.76273 -14.00429,-12.09439 -20.42097,-13.0232 V 256 Z m 2e-5,2e-5 -28.00001,27.99999 c 0.73177,11.00078 3.68126,19.84088 9.9768,25.42097 7.76273,-7.19127 12.09439,-14.00429 13.0232,-20.42097 H 256 Z m 0,0 -28.00001,-27.99999 c 0.73177,-11.00078 3.68126,-19.84088 9.9768,-25.42097 7.76273,7.19127 12.09439,14.00429 13.0232,20.42097 H 256 Z m 0,0 28.00001,27.99999 c -0.73177,11.00078 -3.68126,19.84088 -9.9768,25.42097 -7.76273,-7.19127 -12.09439,-14.00429 -13.0232,-20.42097 H 256 Z m 0,0 28.00001,-27.99999 c -0.73177,-11.00078 -3.68126,-19.84088 -9.9768,-25.42097 -7.76273,7.19127 -12.09439,14.00429 -13.0232,20.42097 H 256 Z"
         id="path38"
         sodipodi:nodetypes="cccccc" /></g></g></svg>
